# AST/ASF file generated using VICON BodyLanguage
# -----------------------------------------------
:version 1.10
:name VICON
:units
  mass 1.0
  length 0.45
  angle deg
:documentation
   .ast/.asf automatically generated from VICON data using
   VICON BodyBuilder and BodyLanguage model FoxedUp or BRILLIANT.MOD
:root
   order TX TY TZ RX RY RZ
   axis XYZ
   position 0 0 0  
   orientation 0 0 0 
:bonedata
  begin
     id 1 
     name lhipjoint
     direction 0.576517 -0.752066 0.319413 
     length 2.45433 
     axis 0 0 0  XYZ
  end
  begin
     id 2 
     name lfemur
     direction 0.34202 -0.939693 0  
     length 7.54459  
     axis 0 0 20  XYZ
    dof rx ry rz
    limits (-160.0 20.0)
           (-70.0 70.0)
           (-60.0 70.0)
  end
  begin
     id 3 
     name ltibia
     direction 0.34202 -0.939693 0   
     length 7.73986   
     axis 0 0 20   XYZ
    dof rx
    limits (-10.0 170.0)
  end
  begin
     id 4 
     name lfoot
     direction 0.090693 -0.249177 0.964202   
     length 2.28437   
     axis -90 7.62852e-016 20   XYZ
    dof rx rz
    limits (-45.0 90.0)
           (-70.0 20.0)
  end
  begin
     id 5 
     name ltoes
     direction 1.5356e-011 -4.21928e-011 1   
     length 1.14243   
     axis -90 7.62852e-016 20   XYZ
    dof rx
    limits (-90.0 20.0)
  end
  begin
     id 6 
     name rhipjoint
     direction -0.573937 -0.753736 0.320122   
     length 2.44889  
     axis 0 0 0  XYZ 
  end
  begin
     id 7 
     name rfemur
     direction -0.34202 -0.939693 0   
     length 7.50166   
     axis 0 0 -20   XYZ
    dof rx ry rz
    limits (-160.0 20.0)
           (-70.0 70.0)
           (-70.0 60.0)
  end
  begin
     id 8 
     name rtibia
     direction -0.34202 -0.939693 0   
     length 7.54266   
     axis 0 0 -20   XYZ
    dof rx
    limits (-10.0 170.0)
 end
 begin
     id 9 
     name rfoot
     direction -0.114017 -0.31326 0.942798   
     length 2.34212  
     axis -90 -7.62852e-016 -20   XYZ
    dof rx rz
    limits (-45.0 90.0)
           (-20.0 70.0)
  end
  begin
     id 10 
     name rtoes
     direction -1.53557e-011 -4.21867e-011 1   
     length 1.16246   
     axis -90 -7.62852e-016 -20   XYZ
    dof rx
    limits (-90.0 20.0)
  end
  begin
     id 11 
     name lowerback
     direction -0.0228371 0.999155 -0.034167   
     length 2.0537   
     axis 0 0 0   XYZ
    dof rx ry rz
    limits (-20.0 45.0)
           (-30.0 30.0)
           (-30.0 30.0)
  end
  begin
     id 12 
     name upperback
     direction 0.0198981 0.999794 0.00389455   
     length 2.05302   
     axis 0 0 0   XYZ
    dof rx ry rz
    limits (-20.0 45.0)
           (-30.0 30.0)
           (-30.0 30.0)
  end
  begin
     id 13 
     name thorax
     direction 0.0304566 0.99935 0.0192987   
     length 2.05315   
     axis 0 0 0   XYZ
    dof rx ry rz
    limits (-20.0 45.0)
           (-30.0 30.0)
           (-30.0 30.0)
  end
  begin
     id 14 
     name lowerneck
     direction -0.0196762 0.99417 0.106017   
     length 1.82056   
     axis 0 0 0   XYZ
    dof rx ry rz
    limits (-20.0 45.0)
           (-30.0 30.0)
           (-30.0 30.0)
  end
  begin
     id 15 
     name upperneck
     direction 0.00517787 0.9802 -0.197944   
     length 1.83835   
     axis 0 0 0   XYZ
    dof rx ry rz
    limits (-20.0 45.0)
           (-30.0 30.0)
           (-30.0 30.0)
  end
  begin
     id 16
     name head
     direction 0.00211419 0.996945 -0.078081  
     length 1.85629  
     axis 0 0 0   XYZ
    dof rx ry rz
    limits (-20.0 45.0)
           (-30.0 30.0)
           (-30.0 30.0)
  end
  begin
     id 17 
     name lclavicle
     direction 0.930001 0.365811 -0.0357824  
     length 3.81961  
     axis 0 0 0   XYZ
    dof ry rz
    limits (-20.0 10.0)
           (0.0 20.0)
  end
  begin
     id 18 
     name lhumerus
     direction 1 -4.48968e-011 -3.06644e-027   
     length 5.14507   
     axis 180 -30 -90   XYZ
    dof rx ry rz
    limits (-60.0 90.0)
           (-90.0 90.0)
           (-90.0 90.0)
  end
  begin
     id 19
     name lradius
     direction 1 -4.48965e-011 9.06925e-028   
     length 3.50646   
     axis 180 -30 -90   XYZ
    dof rx
    limits (-10.0 170.0)
  end
  begin
     id 20
     name lwrist
     direction 1 -4.48957e-011 1.03922e-027   
     length 1.75323   
     axis -2.56395e-016 90 90   XYZ
    dof ry
    limits (-180.0 0.0)
 end
  begin
     id 21 
     name lhand
     direction 1 -4.48967e-011 2.08017e-027   
     length 0.629969   
     axis -1.32723e-015 90 90   XYZ
    dof rx rz
    limits (-90.0 90.0)
           (-45.0 45.0)
  end
  begin
     id 22 
     name lfingers
     direction 1 -4.49089e-011 4.20095e-027   
     length 0.507897   
     axis -2.6545e-015 90 90   XYZ
    dof rx
    limits (0.0 90.0)
  end
  begin
     id 23
     name lthumb
     direction 0.707107 -6.35001e-011 0.707107   
     length 0.729241   
     axis -90 45 5.05613e-014   XYZ
    dof rx rz
    limits (-45.0 45.0)
           (-45.0 45.0)
  end
  begin
     id 24 
     name rclavicle
     direction -0.881882 0.464123 -0.0829113   
     length 3.47515  
     axis 0 0 0   XYZ 
    dof ry rz
    limits (-10.0 20.0)
           (-20.0 0.0)
  end
  begin
     id 25 
     name rhumerus
     direction -1 -4.48961e-011 -1.55672e-027  
     length 5.232   
     axis 180 30 90   XYZ
    dof rx ry rz
    limits (-90.0 60.0)
           (-90.0 90.0)
           (-90.0 90.0)
  end
  begin
     id 26 
     name rradius
     direction -1 -4.48963e-011 6.18178e-029   
     length 3.65641   
     axis 180 30 90   XYZ
    dof rx
    limits (-10.0 170.0)
  end
  begin
     id 27 
     name rwrist
     direction -1 -4.48982e-011 1.04136e-027   
     length 1.8282   
     axis -2.56395e-016 -90 -90   XYZ
    dof ry
    limits (-180.0 0.0)
  end
  begin
     id 28
     name rhand
     direction -1 -4.48929e-011 2.07378e-027   
     length 0.656807   
     axis -1.32723e-015 -90 -90   XYZ
    dof rx rz
    limits (-90.0 90.0)
           (-45.0 45.0)
  end
  begin
     id 29
     name rfingers
     direction -1 -4.489e-011 4.13816e-027   
     length 0.529535   
     axis -2.6545e-015 -90 -90   XYZ
    dof rx
    limits (0.0 90.0)
  end
  begin
     id 30
     name rthumb
     direction -0.707107 -6.34843e-011 0.707107   
     length 0.760309   
     axis -90 -45 -5.05613e-014   XYZ
    dof rx rz
    limits (-45.0 45.0)
           (-45.0 45.0)
  end
:hierarchy
  begin
    root lhipjoint rhipjoint lowerback
    lhipjoint lfemur
    lfemur ltibia
    ltibia lfoot
    lfoot ltoes
    rhipjoint rfemur
    rfemur rtibia
    rtibia rfoot
    rfoot rtoes
    lowerback upperback
    upperback thorax
    thorax lowerneck lclavicle rclavicle
    lowerneck upperneck
    upperneck head
    lclavicle lhumerus
    lhumerus lradius
    lradius lwrist
    lwrist lhand lthumb
    lhand lfingers
    rclavicle rhumerus
    rhumerus rradius
    rradius rwrist
    rwrist rhand rthumb
    rhand rfingers
  end

#!OML:ASF H:\ManfredETheater\Project 1\Capture day 1\Session 1\subject.ASF
:FULLY-SPECIFIED
:DEGREES
1
root -0.052455 16.1076 26.1484 -165.824 -1.78301 167.867
lowerback 10.0827 -3.57109 -6.66311
upperback -0.360049 -5.65338 -0.343315
thorax -5.42521 -2.63754 4.17141
lowerneck -19.9114 0.0206308 -2.51309
upperneck 4.10651 0.902462 0.367836
head 4.3718 0.543394 0.607615
rclavicle -2.46493e-014 3.18055e-014
rhumerus -81.709 0.809718 -70.0126
rradius 74.3978
rwrist -11.4698
rhand -25.092 11.5513
rfingers 7.12502
rthumb 1.42275 -18.4237
lclavicle -2.46493e-014 3.18055e-014
lhumerus -45.8921 -26.601 106.072
lradius 135.726
lwrist 21.3134
lhand -21.642 -12.14
lfingers 7.12502
lthumb 4.7545 17.7867
rfemur -64.7429 -11.0895 11.3899
rtibia 35.3032
rfoot 8.25995 -8.21668
rtoes -6.19959
lfemur 13.2068 -9.28341 -34.3611
ltibia 31.5461
lfoot 18.3769 -12.4112
ltoes 3.03546
2
root -0.033652 16.0787 25.5672 -166.157 -2.47962 167.395
lowerback 9.81384 -3.74955 -6.92272
upperback -0.347005 -5.90082 -0.350598
thorax -5.20745 -2.76346 4.31189
lowerneck -19.6914 -0.0476352 -2.55105
upperneck 4.12946 0.824551 0.17773
head 4.34777 0.487889 0.545838
rclavicle -5.36719e-015 1.03368e-014
rhumerus -81.5068 0.392573 -69.431
rradius 74.662
rwrist -11.6275
rhand -25.4166 11.3106
rfingers 7.12502
rthumb 1.10924 -18.6663
lclavicle -5.36719e-015 1.03368e-014
lhumerus -46.6769 -25.5108 105.688
lradius 134.672
lwrist 22.7238
lhand -20.9607 -11.8378
lfingers 7.12502
lthumb 5.41231 18.0731
rfemur -64.4112 -12.0457 11.4496
rtibia 34.8379
rfoot 9.51662 -9.52833
rtoes -6.20366
lfemur 12.8797 -10.2492 -34.7267
ltibia 35.553
lfoot 16.8809 -10.6956
ltoes 4.14755
3
root -0.0150406 16.0428 24.9896 -166.625 -3.19989 167.196
lowerback 9.69443 -3.87081 -6.96739
upperback -0.24556 -6.04762 -0.267462
thorax -5.00168 -2.84565 4.42327
lowerneck -19.6233 -0.136045 -2.6482
upperneck 4.21024 0.747925 -0.0565676
head 4.3647 0.430185 0.480615
rclavicle -3.79679e-014 -1.74931e-014
rhumerus -81.0343 -0.123501 -68.8236
rradius 74.8349
rwrist -11.5516
rhand -25.7541 11.1453
rfingers 7.12502
rthumb 0.783274 -18.833
lclavicle -3.79679e-014 -1.74931e-014
lhumerus -47.1796 -24.1848 105.151
lradius 133.13
lwrist 23.2456
lhand -20.9736 -11.2413
lfingers 7.12502
lthumb 5.3998 18.6699
rfemur -64.0668 -12.9868 11.8657
rtibia 35.1778
rfoot 10.5243 -10.1779
rtoes -5.93428
lfemur 11.9694 -10.9465 -34.7678
ltibia 40.8778
lfoot 14.3068 -9.12798
ltoes 1.27778
4
root 0.00189711 16.0138 24.4172 -167.144 -3.93386 167.299
lowerback 9.66635 -3.96958 -6.7602
upperback -0.198901 -6.13192 -0.0633686
thorax -4.92382 -2.89178 4.52575
lowerneck -19.2471 -0.258419 -2.94672
upperneck 4.15836 0.649397 -0.183258
head 4.29258 0.365829 0.478188
rclavicle -4.37326e-014 -7.15625e-015
rhumerus -80.4208 -0.628768 -68.1588
rradius 74.7702
rwrist -11.3731
rhand -26.0077 11.1679
rfingers 7.12502
rthumb 0.538316 -18.8112
lclavicle -4.37326e-014 -7.15625e-015
lhumerus -47.8503 -22.5334 104.87
lradius 131.182
lwrist 22.5039
lhand -19.9148 -11.0347
lfingers 7.12502
lthumb 6.4221 18.848
rfemur -63.4875 -13.8699 12.6263
rtibia 35.7478
rfoot 11.4314 -9.83915
rtoes -7.11892
lfemur 11.0066 -11.3444 -34.4225
ltibia 45.8578
lfoot 12.6262 -8.14229
ltoes -5.06644
5
root 0.0287848 16.0051 23.8569 -168.093 -4.48406 168.05
lowerback 10.1631 -3.80618 -6.12971
upperback 0.0014703 -5.85405 0.200972
thorax -5.05685 -2.76509 4.4567
lowerneck -19.0217 -0.50645 -3.18341
upperneck 4.16065 0.365287 -0.202437
head 4.26273 0.218773 0.483981
rclavicle 2.42517e-014 1.98785e-014
rhumerus -79.4254 -1.47779 -67.8469
rradius 74.5796
rwrist -11.1794
rhand -25.9156 11.167
rfingers 7.12502
rthumb 0.627228 -18.8118
lclavicle 2.42517e-014 1.98785e-014
lhumerus -48.0229 -20.5303 104.229
lradius 128.172
lwrist 20.9972
lhand -19.9846 -10.9109
lfingers 7.12502
lthumb 6.35469 18.9737
rfemur -61.9632 -14.6656 14.4901
rtibia 36.9316
rfoot 11.4291 -5.56008
rtoes -13.7944
lfemur 9.05111 -10.9325 -33.1361
ltibia 51.2905
lfoot 13.0635 -9.13945
ltoes -2.92322
6
root 0.0537796 15.971 23.2977 -168.888 -5.01131 168.496
lowerback 10.5211 -3.72751 -5.77112
upperback 0.116822 -5.71594 0.405895
thorax -5.1641 -2.7018 4.48163
lowerneck -18.7435 -0.677566 -3.36073
upperneck 4.17027 0.170395 -0.291191
head 4.2264 0.111254 0.466853
rclavicle 5.84427e-014 -2.70347e-014
rhumerus -78.6223 -2.14574 -67.5015
rradius 74.4553
rwrist -11.0647
rhand -25.9768 11.0585
rfingers 7.12502
rthumb 0.568176 -18.9204
lclavicle 5.84427e-014 -2.70347e-014
lhumerus -48.5122 -18.8567 103.739
lradius 125.666
lwrist 20.1805
lhand -19.8584 -10.7534
lfingers 7.12502
lthumb 6.47653 19.1276
rfemur -61.181 -15.3664 15.7013
rtibia 38.5819
rfoot 10.7626 -3.86633
rtoes -14.6675
lfemur 7.66747 -10.9366 -32.3325
ltibia 56.5488
lfoot 11.9315 -8.87713
ltoes -3.91032
7
root 0.0814135 15.9361 22.7487 -169.806 -5.41639 169.119
lowerback 11.095 -3.57329 -5.32104
upperback 0.240433 -5.47835 0.630378
thorax -5.40042 -2.58814 4.48044
lowerneck -18.4525 -0.857128 -3.51167
upperneck 4.18325 -0.0461428 -0.360039
head 4.1895 -0.00539161 0.450324
rclavicle 5.52621e-014 3.02153e-014
rhumerus -77.6819 -2.84953 -67.2902
rradius 74.2232
rwrist -10.9581
rhand -26.0045 10.9191
rfingers 7.12502
rthumb 0.541365 -19.06
lclavicle 5.52621e-014 3.02153e-014
lhumerus -48.9637 -17.1025 103.201
lradius 122.894
lwrist 19.2765
lhand -19.9295 -10.6365
lfingers 7.12502
lthumb 6.40787 19.2466
rfemur -60.2448 -15.7998 16.9125
rtibia 40.7098
rfoot 9.29236 -2.51617
rtoes -14.2916
lfemur 6.14997 -10.7093 -31.2878
ltibia 61.7776
lfoot 10.8275 -8.76468
ltoes -4.59043
